<mxfile host="Electron" agent="Mozilla/5.0 (Windows NT 10.0; Win64; x64) AppleWebKit/537.36 (KHTML, like Gecko) draw.io/26.1.1 Chrome/132.0.6834.210 Electron/34.3.3 Safari/537.36" version="26.1.1">
  <diagram id="C5RBs43oDa-KdzZeNtuy" name="Page-1">
    <mxGraphModel dx="1050" dy="1790" grid="1" gridSize="10" guides="1" tooltips="1" connect="1" arrows="1" fold="1" page="1" pageScale="1" pageWidth="827" pageHeight="1169" math="0" shadow="0">
      <root>
        <mxCell id="WIyWlLk6GJQsqaUBKTNV-0" />
        <mxCell id="WIyWlLk6GJQsqaUBKTNV-1" parent="WIyWlLk6GJQsqaUBKTNV-0" />
        <mxCell id="frrmZ5bs2Q-YLhOnSYv0-14" value="" style="edgeStyle=orthogonalEdgeStyle;rounded=0;orthogonalLoop=1;jettySize=auto;html=1;" edge="1" parent="WIyWlLk6GJQsqaUBKTNV-1" source="frrmZ5bs2Q-YLhOnSYv0-0" target="frrmZ5bs2Q-YLhOnSYv0-2">
          <mxGeometry relative="1" as="geometry" />
        </mxCell>
        <mxCell id="frrmZ5bs2Q-YLhOnSYv0-0" value="start" style="rounded=1;whiteSpace=wrap;html=1;" vertex="1" parent="WIyWlLk6GJQsqaUBKTNV-1">
          <mxGeometry x="390" y="-80" width="120" height="60" as="geometry" />
        </mxCell>
        <mxCell id="frrmZ5bs2Q-YLhOnSYv0-25" value="" style="edgeStyle=orthogonalEdgeStyle;rounded=0;orthogonalLoop=1;jettySize=auto;html=1;" edge="1" parent="WIyWlLk6GJQsqaUBKTNV-1" source="frrmZ5bs2Q-YLhOnSYv0-1" target="frrmZ5bs2Q-YLhOnSYv0-8">
          <mxGeometry relative="1" as="geometry" />
        </mxCell>
        <mxCell id="frrmZ5bs2Q-YLhOnSYv0-1" value="set basebill =&lt;div&gt;numnessages&lt;/div&gt;&lt;div&gt;x.05&lt;/div&gt;" style="shape=parallelogram;perimeter=parallelogramPerimeter;whiteSpace=wrap;html=1;fixedSize=1;" vertex="1" parent="WIyWlLk6GJQsqaUBKTNV-1">
          <mxGeometry x="294" y="390" width="120" height="50" as="geometry" />
        </mxCell>
        <mxCell id="frrmZ5bs2Q-YLhOnSYv0-15" value="" style="edgeStyle=orthogonalEdgeStyle;rounded=0;orthogonalLoop=1;jettySize=auto;html=1;" edge="1" parent="WIyWlLk6GJQsqaUBKTNV-1" source="frrmZ5bs2Q-YLhOnSYv0-2" target="frrmZ5bs2Q-YLhOnSYv0-5">
          <mxGeometry relative="1" as="geometry" />
        </mxCell>
        <mxCell id="frrmZ5bs2Q-YLhOnSYv0-2" value="input areacode" style="shape=parallelogram;perimeter=parallelogramPerimeter;whiteSpace=wrap;html=1;fixedSize=1;" vertex="1" parent="WIyWlLk6GJQsqaUBKTNV-1">
          <mxGeometry x="380" y="20" width="120" height="60" as="geometry" />
        </mxCell>
        <mxCell id="frrmZ5bs2Q-YLhOnSYv0-34" style="edgeStyle=orthogonalEdgeStyle;rounded=0;orthogonalLoop=1;jettySize=auto;html=1;exitX=1;exitY=0.75;exitDx=0;exitDy=0;" edge="1" parent="WIyWlLk6GJQsqaUBKTNV-1" source="frrmZ5bs2Q-YLhOnSYv0-3">
          <mxGeometry relative="1" as="geometry">
            <mxPoint x="530" y="342" as="targetPoint" />
          </mxGeometry>
        </mxCell>
        <mxCell id="frrmZ5bs2Q-YLhOnSYv0-3" value="nummessages&lt;div&gt;&amp;gt; 100&lt;/div&gt;" style="shape=parallelogram;perimeter=parallelogramPerimeter;whiteSpace=wrap;html=1;fixedSize=1;" vertex="1" parent="WIyWlLk6GJQsqaUBKTNV-1">
          <mxGeometry x="320" y="300" width="120" height="60" as="geometry" />
        </mxCell>
        <mxCell id="frrmZ5bs2Q-YLhOnSYv0-17" value="" style="edgeStyle=orthogonalEdgeStyle;rounded=0;orthogonalLoop=1;jettySize=auto;html=1;" edge="1" parent="WIyWlLk6GJQsqaUBKTNV-1" source="frrmZ5bs2Q-YLhOnSYv0-4" target="frrmZ5bs2Q-YLhOnSYv0-3">
          <mxGeometry relative="1" as="geometry" />
        </mxCell>
        <mxCell id="frrmZ5bs2Q-YLhOnSYv0-33" style="edgeStyle=orthogonalEdgeStyle;rounded=0;orthogonalLoop=1;jettySize=auto;html=1;exitX=1;exitY=0.75;exitDx=0;exitDy=0;" edge="1" parent="WIyWlLk6GJQsqaUBKTNV-1" source="frrmZ5bs2Q-YLhOnSYv0-4">
          <mxGeometry relative="1" as="geometry">
            <mxPoint x="570" y="242" as="targetPoint" />
            <Array as="points">
              <mxPoint x="515" y="242" />
              <mxPoint x="515" y="243" />
            </Array>
          </mxGeometry>
        </mxCell>
        <mxCell id="frrmZ5bs2Q-YLhOnSYv0-4" value="areacode =&lt;div&gt;selected area&amp;nbsp;&lt;/div&gt;&lt;div&gt;code&lt;/div&gt;" style="shape=parallelogram;perimeter=parallelogramPerimeter;whiteSpace=wrap;html=1;fixedSize=1;" vertex="1" parent="WIyWlLk6GJQsqaUBKTNV-1">
          <mxGeometry x="340" y="200" width="120" height="60" as="geometry" />
        </mxCell>
        <mxCell id="frrmZ5bs2Q-YLhOnSYv0-16" value="" style="edgeStyle=orthogonalEdgeStyle;rounded=0;orthogonalLoop=1;jettySize=auto;html=1;" edge="1" parent="WIyWlLk6GJQsqaUBKTNV-1" source="frrmZ5bs2Q-YLhOnSYv0-5" target="frrmZ5bs2Q-YLhOnSYv0-4">
          <mxGeometry relative="1" as="geometry" />
        </mxCell>
        <mxCell id="frrmZ5bs2Q-YLhOnSYv0-27" style="edgeStyle=orthogonalEdgeStyle;rounded=0;orthogonalLoop=1;jettySize=auto;html=1;exitX=1;exitY=0.5;exitDx=0;exitDy=0;entryX=0.5;entryY=0;entryDx=0;entryDy=0;" edge="1" parent="WIyWlLk6GJQsqaUBKTNV-1" source="frrmZ5bs2Q-YLhOnSYv0-5" target="frrmZ5bs2Q-YLhOnSYv0-13">
          <mxGeometry relative="1" as="geometry" />
        </mxCell>
        <mxCell id="frrmZ5bs2Q-YLhOnSYv0-28" style="edgeStyle=orthogonalEdgeStyle;rounded=0;orthogonalLoop=1;jettySize=auto;html=1;exitX=0;exitY=0.5;exitDx=0;exitDy=0;entryX=0;entryY=0.5;entryDx=0;entryDy=0;" edge="1" parent="WIyWlLk6GJQsqaUBKTNV-1" source="frrmZ5bs2Q-YLhOnSYv0-5" target="frrmZ5bs2Q-YLhOnSYv0-8">
          <mxGeometry relative="1" as="geometry">
            <Array as="points">
              <mxPoint x="270" y="140" />
              <mxPoint x="270" y="580" />
            </Array>
          </mxGeometry>
        </mxCell>
        <mxCell id="frrmZ5bs2Q-YLhOnSYv0-5" value="nummessages&amp;nbsp;&lt;div&gt;= -1&lt;/div&gt;" style="shape=parallelogram;perimeter=parallelogramPerimeter;whiteSpace=wrap;html=1;fixedSize=1;" vertex="1" parent="WIyWlLk6GJQsqaUBKTNV-1">
          <mxGeometry x="360" y="110" width="120" height="60" as="geometry" />
        </mxCell>
        <mxCell id="frrmZ5bs2Q-YLhOnSYv0-22" style="edgeStyle=orthogonalEdgeStyle;rounded=0;orthogonalLoop=1;jettySize=auto;html=1;exitX=0.5;exitY=1;exitDx=0;exitDy=0;entryX=0.5;entryY=0;entryDx=0;entryDy=0;" edge="1" parent="WIyWlLk6GJQsqaUBKTNV-1" source="frrmZ5bs2Q-YLhOnSYv0-6" target="frrmZ5bs2Q-YLhOnSYv0-8">
          <mxGeometry relative="1" as="geometry" />
        </mxCell>
        <mxCell id="frrmZ5bs2Q-YLhOnSYv0-6" value="set finalbill&lt;div&gt;= basebill =&lt;/div&gt;&lt;div&gt;messages x .06&lt;/div&gt;" style="shape=parallelogram;perimeter=parallelogramPerimeter;whiteSpace=wrap;html=1;fixedSize=1;" vertex="1" parent="WIyWlLk6GJQsqaUBKTNV-1">
          <mxGeometry x="290" y="470" width="120" height="60" as="geometry" />
        </mxCell>
        <mxCell id="frrmZ5bs2Q-YLhOnSYv0-24" style="edgeStyle=orthogonalEdgeStyle;rounded=0;orthogonalLoop=1;jettySize=auto;html=1;exitX=0.5;exitY=1;exitDx=0;exitDy=0;entryX=0.5;entryY=0;entryDx=0;entryDy=0;" edge="1" parent="WIyWlLk6GJQsqaUBKTNV-1" source="frrmZ5bs2Q-YLhOnSYv0-7" target="frrmZ5bs2Q-YLhOnSYv0-9">
          <mxGeometry relative="1" as="geometry" />
        </mxCell>
        <mxCell id="frrmZ5bs2Q-YLhOnSYv0-7" value="display phonenumber" style="rounded=0;whiteSpace=wrap;html=1;" vertex="1" parent="WIyWlLk6GJQsqaUBKTNV-1">
          <mxGeometry x="294" y="630" width="120" height="60" as="geometry" />
        </mxCell>
        <mxCell id="frrmZ5bs2Q-YLhOnSYv0-23" style="edgeStyle=orthogonalEdgeStyle;rounded=0;orthogonalLoop=1;jettySize=auto;html=1;exitX=0.5;exitY=1;exitDx=0;exitDy=0;entryX=0.5;entryY=0;entryDx=0;entryDy=0;" edge="1" parent="WIyWlLk6GJQsqaUBKTNV-1" source="frrmZ5bs2Q-YLhOnSYv0-8" target="frrmZ5bs2Q-YLhOnSYv0-7">
          <mxGeometry relative="1" as="geometry" />
        </mxCell>
        <mxCell id="frrmZ5bs2Q-YLhOnSYv0-8" value="display areacode" style="rounded=0;whiteSpace=wrap;html=1;" vertex="1" parent="WIyWlLk6GJQsqaUBKTNV-1">
          <mxGeometry x="290" y="550" width="120" height="60" as="geometry" />
        </mxCell>
        <mxCell id="frrmZ5bs2Q-YLhOnSYv0-26" value="" style="edgeStyle=orthogonalEdgeStyle;rounded=0;orthogonalLoop=1;jettySize=auto;html=1;" edge="1" parent="WIyWlLk6GJQsqaUBKTNV-1" source="frrmZ5bs2Q-YLhOnSYv0-9" target="frrmZ5bs2Q-YLhOnSYv0-10">
          <mxGeometry relative="1" as="geometry" />
        </mxCell>
        <mxCell id="frrmZ5bs2Q-YLhOnSYv0-9" value="display total bill" style="rounded=0;whiteSpace=wrap;html=1;" vertex="1" parent="WIyWlLk6GJQsqaUBKTNV-1">
          <mxGeometry x="294" y="720" width="120" height="60" as="geometry" />
        </mxCell>
        <mxCell id="frrmZ5bs2Q-YLhOnSYv0-10" value="end" style="rounded=1;whiteSpace=wrap;html=1;" vertex="1" parent="WIyWlLk6GJQsqaUBKTNV-1">
          <mxGeometry x="300" y="820" width="120" height="60" as="geometry" />
        </mxCell>
        <mxCell id="frrmZ5bs2Q-YLhOnSYv0-29" style="edgeStyle=orthogonalEdgeStyle;rounded=0;orthogonalLoop=1;jettySize=auto;html=1;entryX=1;entryY=0.75;entryDx=0;entryDy=0;" edge="1" parent="WIyWlLk6GJQsqaUBKTNV-1" source="frrmZ5bs2Q-YLhOnSYv0-11" target="frrmZ5bs2Q-YLhOnSYv0-8">
          <mxGeometry relative="1" as="geometry" />
        </mxCell>
        <mxCell id="frrmZ5bs2Q-YLhOnSYv0-11" value="set totalbill&lt;div&gt;= basebill +&lt;/div&gt;&lt;div&gt;basebill&lt;/div&gt;" style="shape=parallelogram;perimeter=parallelogramPerimeter;whiteSpace=wrap;html=1;fixedSize=1;" vertex="1" parent="WIyWlLk6GJQsqaUBKTNV-1">
          <mxGeometry x="470" y="360" width="120" height="60" as="geometry" />
        </mxCell>
        <mxCell id="frrmZ5bs2Q-YLhOnSYv0-32" style="edgeStyle=orthogonalEdgeStyle;rounded=0;orthogonalLoop=1;jettySize=auto;html=1;exitX=0.25;exitY=1;exitDx=0;exitDy=0;" edge="1" parent="WIyWlLk6GJQsqaUBKTNV-1" source="frrmZ5bs2Q-YLhOnSYv0-12" target="frrmZ5bs2Q-YLhOnSYv0-11">
          <mxGeometry relative="1" as="geometry" />
        </mxCell>
        <mxCell id="frrmZ5bs2Q-YLhOnSYv0-12" value="set basebill =&lt;div&gt;nummessages&amp;nbsp;&lt;/div&gt;&lt;div&gt;x .05&lt;/div&gt;" style="shape=parallelogram;perimeter=parallelogramPerimeter;whiteSpace=wrap;html=1;fixedSize=1;" vertex="1" parent="WIyWlLk6GJQsqaUBKTNV-1">
          <mxGeometry x="500" y="270" width="120" height="60" as="geometry" />
        </mxCell>
        <mxCell id="frrmZ5bs2Q-YLhOnSYv0-13" value="input areacode" style="shape=parallelogram;perimeter=parallelogramPerimeter;whiteSpace=wrap;html=1;fixedSize=1;" vertex="1" parent="WIyWlLk6GJQsqaUBKTNV-1">
          <mxGeometry x="510" y="160" width="120" height="60" as="geometry" />
        </mxCell>
        <mxCell id="frrmZ5bs2Q-YLhOnSYv0-21" style="edgeStyle=orthogonalEdgeStyle;rounded=0;orthogonalLoop=1;jettySize=auto;html=1;exitX=0.5;exitY=1;exitDx=0;exitDy=0;entryX=0.663;entryY=0.01;entryDx=0;entryDy=0;entryPerimeter=0;" edge="1" parent="WIyWlLk6GJQsqaUBKTNV-1" source="frrmZ5bs2Q-YLhOnSYv0-3" target="frrmZ5bs2Q-YLhOnSYv0-1">
          <mxGeometry relative="1" as="geometry" />
        </mxCell>
        <mxCell id="frrmZ5bs2Q-YLhOnSYv0-30" style="edgeStyle=orthogonalEdgeStyle;rounded=0;orthogonalLoop=1;jettySize=auto;html=1;exitX=0.5;exitY=1;exitDx=0;exitDy=0;entryX=0.59;entryY=0.003;entryDx=0;entryDy=0;entryPerimeter=0;" edge="1" parent="WIyWlLk6GJQsqaUBKTNV-1" source="frrmZ5bs2Q-YLhOnSYv0-13" target="frrmZ5bs2Q-YLhOnSYv0-12">
          <mxGeometry relative="1" as="geometry" />
        </mxCell>
        <mxCell id="frrmZ5bs2Q-YLhOnSYv0-35" value="no" style="text;html=1;align=center;verticalAlign=middle;resizable=0;points=[];autosize=1;strokeColor=none;fillColor=none;" vertex="1" parent="WIyWlLk6GJQsqaUBKTNV-1">
          <mxGeometry x="480" y="108" width="40" height="30" as="geometry" />
        </mxCell>
        <mxCell id="frrmZ5bs2Q-YLhOnSYv0-36" value="yes" style="text;html=1;align=center;verticalAlign=middle;resizable=0;points=[];autosize=1;strokeColor=none;fillColor=none;" vertex="1" parent="WIyWlLk6GJQsqaUBKTNV-1">
          <mxGeometry x="470" y="218" width="40" height="30" as="geometry" />
        </mxCell>
        <mxCell id="frrmZ5bs2Q-YLhOnSYv0-37" value="Text" style="text;html=1;align=center;verticalAlign=middle;resizable=0;points=[];autosize=1;strokeColor=none;fillColor=none;" vertex="1" parent="WIyWlLk6GJQsqaUBKTNV-1">
          <mxGeometry x="455" y="318" width="50" height="30" as="geometry" />
        </mxCell>
      </root>
    </mxGraphModel>
  </diagram>
</mxfile>
